<svg id="instagram" xmlns="http://www.w3.org/2000/svg" width="14.769" height="14.769" viewBox="0 0 14.769 14.769">
  <path id="Pfad_19" data-name="Pfad 19" d="M12.052,6.785a1.274,1.274,0,0,0-.731-.73,2.128,2.128,0,0,0-.714-.132C10.2,5.9,10.081,5.9,9.054,5.9s-1.148,0-1.554.023a2.128,2.128,0,0,0-.715.132,1.274,1.274,0,0,0-.73.731,2.128,2.128,0,0,0-.132.714C5.9,7.905,5.9,8.027,5.9,9.054s0,1.148.023,1.554a2.128,2.128,0,0,0,.132.715,1.274,1.274,0,0,0,.731.73,2.128,2.128,0,0,0,.714.132c.405.018.527.023,1.554.023s1.148,0,1.554-.023a2.128,2.128,0,0,0,.715-.132,1.274,1.274,0,0,0,.73-.731,2.128,2.128,0,0,0,.132-.714c.018-.405.023-.527.023-1.554s0-1.148-.023-1.554a2.128,2.128,0,0,0-.132-.715Zm-3,4.244a1.975,1.975,0,1,1,1.975-1.975,1.975,1.975,0,0,1-1.975,1.975Zm2.053-3.567A.462.462,0,1,1,11.568,7a.462.462,0,0,1-.462.462Z" transform="translate(-1.669 -1.669)" fill="#fff"/>
  <circle id="Ellipse_14" data-name="Ellipse 14" cx="1.282" cy="1.282" r="1.282" transform="translate(6.103 6.103)" fill="#fff"/>
  <path id="Pfad_20" data-name="Pfad 20" d="M7.785.4a7.385,7.385,0,1,0,7.385,7.385A7.385,7.385,0,0,0,7.785.4Zm3.823,8.971a2.823,2.823,0,0,1-.179.933A1.966,1.966,0,0,1,10.3,11.428a2.823,2.823,0,0,1-.933.179c-.411.018-.542.023-1.586.023s-1.175,0-1.586-.023a2.823,2.823,0,0,1-.933-.179A1.966,1.966,0,0,1,4.141,10.3a2.823,2.823,0,0,1-.179-.933c-.018-.411-.023-.542-.023-1.586s0-1.175.023-1.586a2.823,2.823,0,0,1,.179-.933A1.966,1.966,0,0,1,5.265,4.141,2.823,2.823,0,0,1,6.2,3.962c.411-.018.542-.023,1.586-.023s1.175,0,1.586.023a2.823,2.823,0,0,1,.933.179,1.966,1.966,0,0,1,1.125,1.125,2.823,2.823,0,0,1,.179.933c.018.411.023.542.023,1.586S11.626,8.96,11.608,9.371Z" transform="translate(-0.4 -0.4)" fill="#fff"/>
</svg>
