<svg xmlns="http://www.w3.org/2000/svg" width="14.769" height="14.769" viewBox="0 0 14.769 14.769">
  <path id="xing" d="M7.785.4a7.385,7.385,0,1,0,7.385,7.385A7.385,7.385,0,0,0,7.785.4ZM6.295,8.938l-.118.238a.306.306,0,0,1-.267.147H4.822c-.192,0-.184-.147-.137-.243l.071-.142.865-1.731-.481-.962L5.07,6.1c-.047-.1-.055-.242.137-.242H6.295a.307.307,0,0,1,.267.146l.118.238.481.962Zm4.59-4.373-.071.142L8.891,8.554l1.154,2.308.071.142c.048.1.055.243-.137.243H8.891a.3.3,0,0,1-.265-.147l-.119-.238L7.352,8.554,9.275,4.708l.119-.238a.3.3,0,0,1,.265-.146h1.088C10.94,4.323,10.932,4.469,10.885,4.565Z" transform="translate(-0.4 -0.4)" fill="#fff"/>
</svg>
